<svg width="369" height="87" viewBox="0 0 369 87" fill="none" xmlns="http://www.w3.org/2000/svg">
    <g clip-path="url(#clip0_12_10)">
        <g filter="url(#filter0_d_12_10)">
            <path
                d="M47.2222 44.4123C47.2222 52.4716 39.6667 70.6049 32.1111 70.6049C26.4025 70.6049 17 53.6469 17 44.4123C17 22.4173 32.1111 11 32.1111 11C32.1111 11 47.2222 25.4395 47.2222 44.4123Z"
                fill="#FFB084" />
            <path
                d="M47.2218 44.4123C47.2218 52.4716 39.6662 70.6049 32.1107 70.6049C30.7675 70.6049 32.1106 53.6469 32.1106 44.4123C32.1106 22.4173 32.1107 11 32.1107 11C32.1107 11 47.2218 25.4395 47.2218 44.4123Z"
                fill="#C08D5F" />
            <path
                d="M30.0967 70.437L31.6078 61.8741V62.9485C31.6078 65.5225 32.4315 68.029 33.9584 70.1012L32.951 79L31.1041 78.3284L30.0967 70.437Z"
                fill="#A6A385" />
        </g>
        <path
            d="M67.9811 58H60.9811L65.2811 23.5H72.4311L80.8311 48.7L95.1311 23.5H102.231L98.0311 58.05H91.0311L93.2811 39.5L82.5811 58H76.9811L70.3311 39.05L67.9811 58ZM116.03 58.85C108.28 58.85 103.08 52.4 104.08 44.7C105.08 37.05 111.98 30.65 119.68 30.65C127.38 30.65 132.63 37.05 131.63 44.8C130.63 52.45 123.68 58.8 116.03 58.85ZM116.78 52.45C120.73 52.45 124.48 49 125.03 44.7C125.58 40.45 122.78 37 118.88 37C114.98 37 111.23 40.45 110.68 44.8C110.13 49.05 112.88 52.45 116.78 52.45ZM140.459 58H133.959L137.209 31.45H143.709L142.959 37.3C145.609 32.85 149.359 30.7 153.609 30.7C160.209 30.7 163.109 36 162.409 42L160.409 58H153.909L155.909 42C156.309 38.7 154.959 37.2 152.709 37.2C148.509 37.2 142.359 42.3 140.659 56.3L140.459 58ZM190.201 31.5H196.701C196.251 35.35 195.251 40 193.551 44.35C194.201 48 194.201 51.85 193.801 55.15C192.551 65.35 184.901 69.85 177.201 70.15C173.351 70.3 169.201 69.4 165.951 67.5L169.551 61.9C171.701 63.15 174.451 64.05 177.301 63.95C183.501 63.7 186.751 60.65 187.551 53.8C184.751 56.55 181.151 58.85 176.801 58.85C169.151 58.85 164.751 52.15 165.601 45.15C166.451 38.4 171.501 30.65 180.601 30.65C184.651 30.65 187.551 32.85 189.651 35.5C189.851 34.4 190.051 32.75 190.201 31.5ZM187.251 44.5C186.051 40.05 183.051 37.05 179.801 37.05C175.701 37.05 172.751 40.45 172.151 45.15C171.651 49.3 174.201 52.4 177.601 52.4C180.751 52.4 184.701 49.85 187.251 44.5ZM211.001 58.85C203.251 58.85 198.051 52.4 199.051 44.7C200.051 37.05 206.951 30.65 214.651 30.65C222.351 30.65 227.601 37.05 226.601 44.8C225.601 52.45 218.651 58.8 211.001 58.85ZM211.751 52.45C215.701 52.45 219.451 49 220.001 44.7C220.551 40.45 217.751 37 213.851 37C209.951 37 206.201 40.45 205.651 44.8C205.101 49.05 207.851 52.45 211.751 52.45Z"
            fill="#FFB084" />
        <path
            d="M236.78 58.05H229.78L234.03 23.5H250.93C257.13 23.5 261.93 28.3 261.13 34.65C260.28 41.7 254.23 45.8 248.18 45.8H238.28L236.78 58.05ZM240.23 30.25L239.13 39.05H249.03C251.93 39.05 253.83 37.15 254.13 34.65C254.38 32.55 252.83 30.25 250.08 30.25H240.23ZM289.992 58.05H283.492C283.642 56.75 283.842 55 283.942 53.85C281.342 56.65 277.642 58.85 273.342 58.85C265.692 58.85 261.242 52.15 262.092 45.15C262.992 38.1 268.042 30.65 277.142 30.65C281.292 30.65 284.192 33 286.192 35.75C286.392 34.5 286.592 32.7 286.742 31.5H293.242C292.742 35.45 291.742 40.3 289.892 44.75C290.642 49.3 290.492 54.15 289.992 58.05ZM283.642 44.8C282.492 39.8 279.492 37.05 276.342 37.05C272.242 37.05 269.292 40.45 268.692 45.15C268.192 49.3 270.742 52.4 274.142 52.4C277.242 52.4 281.142 49.95 283.642 44.8ZM293.546 54.45L298.646 49.75C300.696 52.05 303.096 53.05 305.846 53.05C309.996 53.05 310.246 51.05 310.246 50.95C310.496 49.05 306.446 48.1 305.246 47.8C299.896 46.45 295.546 43.55 296.696 38C297.696 33.05 302.546 30.35 307.846 30.35C312.196 30.35 315.946 32.1 318.146 34.75L312.946 39.25C311.846 37.95 309.746 36.6 307.096 36.6C303.396 36.6 303.146 38.3 303.096 38.55C302.896 40.25 306.496 41.2 307.546 41.5C312.346 42.7 317.496 45 316.746 50.95C316.146 55.95 311.196 59.3 305.096 59.3C300.896 59.3 296.846 58 293.546 54.45ZM318.057 54.45L323.157 49.75C325.207 52.05 327.607 53.05 330.357 53.05C334.507 53.05 334.757 51.05 334.757 50.95C335.007 49.05 330.957 48.1 329.757 47.8C324.407 46.45 320.057 43.55 321.207 38C322.207 33.05 327.057 30.35 332.357 30.35C336.707 30.35 340.457 32.1 342.657 34.75L337.457 39.25C336.357 37.95 334.257 36.6 331.607 36.6C327.907 36.6 327.657 38.3 327.607 38.55C327.407 40.25 331.007 41.2 332.057 41.5C336.857 42.7 342.007 45 341.257 50.95C340.657 55.95 335.707 59.3 329.607 59.3C325.407 59.3 321.357 58 318.057 54.45Z"
            fill="#C08D5F" />
        <path
            d="M348.127 16.4018C347.349 16.4018 346.776 16.1824 346.406 15.7436C346.045 15.3049 345.864 14.7236 345.864 14C345.864 13.2687 346.064 12.6798 346.464 12.2333C346.872 11.7868 347.438 11.5635 348.162 11.5635C348.4 11.5635 348.639 11.5905 348.878 11.6443C349.124 11.6982 349.359 11.7791 349.582 11.8868L349.236 12.6951C349.074 12.6182 348.901 12.5566 348.716 12.5104C348.539 12.4565 348.35 12.4296 348.15 12.4296C347.781 12.4296 347.488 12.5681 347.273 12.8453C347.057 13.1224 346.949 13.5112 346.949 14.0115C346.949 15.0354 347.373 15.5473 348.219 15.5473C348.427 15.5473 348.627 15.5243 348.82 15.4781C349.012 15.4319 349.201 15.3741 349.386 15.3049V16.1709C349.193 16.2479 348.993 16.3056 348.785 16.3441C348.585 16.3826 348.366 16.4018 348.127 16.4018ZM348 19C347.307 19 346.657 18.8691 346.048 18.6074C345.448 18.3533 344.917 17.9992 344.455 17.545C344.001 17.0831 343.643 16.552 343.381 15.9515C343.127 15.3433 343 14.6928 343 14C343 13.3072 343.127 12.6605 343.381 12.06C343.643 11.4519 344.001 10.9207 344.455 10.4665C344.917 10.0046 345.448 9.64665 346.048 9.39261C346.657 9.13087 347.307 9 348 9C348.693 9 349.339 9.13087 349.94 9.39261C350.548 9.64665 351.079 10.0046 351.533 10.4665C351.995 10.9207 352.353 11.4519 352.607 12.06C352.869 12.6605 353 13.3072 353 14C353 14.6928 352.869 15.3433 352.607 15.9515C352.353 16.552 351.995 17.0831 351.533 17.545C351.079 17.9992 350.548 18.3533 349.94 18.6074C349.339 18.8691 348.693 19 348 19ZM348 17.9723C348.554 17.9723 349.07 17.8722 349.547 17.6721C350.025 17.4642 350.444 17.1794 350.806 16.8176C351.176 16.448 351.46 16.0246 351.661 15.5473C351.868 15.0624 351.972 14.5466 351.972 14C351.972 13.4457 351.868 12.9299 351.661 12.4527C351.46 11.9754 351.176 11.5558 350.806 11.194C350.444 10.8245 350.021 10.5396 349.536 10.3395C349.059 10.1316 348.547 10.0277 348 10.0277C347.446 10.0277 346.93 10.1316 346.453 10.3395C345.975 10.5396 345.552 10.8245 345.182 11.194C344.821 11.5558 344.536 11.9792 344.328 12.4642C344.128 12.9415 344.028 13.4534 344.028 14C344.028 14.5543 344.128 15.0701 344.328 15.5473C344.536 16.0246 344.821 16.448 345.182 16.8176C345.552 17.1794 345.975 17.4642 346.453 17.6721C346.938 17.8722 347.453 17.9723 348 17.9723Z"
            fill="#A6A385" />
    </g>
    <defs>
        <filter id="filter0_d_12_10" x="5" y="-1" width="46.2227" height="84"
            filterUnits="userSpaceOnUse" color-interpolation-filters="sRGB">
            <feFlood flood-opacity="0" result="BackgroundImageFix" />
            <feColorMatrix in="SourceAlpha" type="matrix"
                values="0 0 0 0 0 0 0 0 0 0 0 0 0 0 0 0 0 0 127 0" result="hardAlpha" />
            <feOffset dx="-4" dy="-4" />
            <feGaussianBlur stdDeviation="4" />
            <feComposite in2="hardAlpha" operator="out" />
            <feColorMatrix type="matrix" values="0 0 0 0 0 0 0 0 0 0 0 0 0 0 0 0 0 0 0.25 0" />
            <feBlend mode="normal" in2="BackgroundImageFix" result="effect1_dropShadow_12_10" />
            <feBlend mode="normal" in="SourceGraphic" in2="effect1_dropShadow_12_10" result="shape" />
        </filter>
        <clipPath id="clip0_12_10">
            <rect width="369" height="87" fill="white" />
        </clipPath>
    </defs>
</svg>